# xmcd CD database file
#
# Track frame offsets:
#	152
#	42850
#	63285
#	85470
#	122470
#	168902
#	196524
#	238276
#	248273
#
# Disc length: 3617 seconds
#
# Revision: 0
# Processed by: cddbd v1.5.2PL0 Copyright (c) Steve Scherf et al.
# Submitted via: CDex 1.70beta2
#
DISCID=660e1f09
DTITLE=Adderley, Cannonball Quintet - Legends live - Liederhalle Stuttgart am 20-03-1969
DYEAR=2011
DGENRE=Jazz
TTITLE0=Rumpelstiltskin
TTITLE1=Sweet Emma
TTITLE2=Somewhere
TTITLE3=Why am I treated so bad
TTITLE4=The painted desert
TTITLE5=Oh babe
TTITLE6=Blue and boogie
TTITLE7=Walk tall
TTITLE8=Work song
EXTD=YEAR: 2011
EXTT0=
EXTT1=
EXTT2=
EXTT3=
EXTT4=
EXTT5=
EXTT6=
EXTT7=
EXTT8=
PLAYORDER=
